<mxfile host="app.diagrams.net" modified="2023-10-25T21:38:21.242Z" agent="Mozilla/5.0 (Windows NT 10.0; Win64; x64) AppleWebKit/537.36 (KHTML, like Gecko) Chrome/118.0.0.0 Safari/537.36" etag="X4cdXWeNZ2SeCHR3QICC" version="22.0.8" type="device">
  <diagram id="C5RBs43oDa-KdzZeNtuy" name="Page-1">
    <mxGraphModel dx="792" dy="758" grid="1" gridSize="10" guides="1" tooltips="1" connect="1" arrows="1" fold="1" page="1" pageScale="1" pageWidth="827" pageHeight="1169" math="0" shadow="0">
      <root>
        <mxCell id="WIyWlLk6GJQsqaUBKTNV-0" />
        <mxCell id="WIyWlLk6GJQsqaUBKTNV-1" parent="WIyWlLk6GJQsqaUBKTNV-0" />
        <mxCell id="_BGYyYJeac0ctl_T_yDw-22" style="edgeStyle=orthogonalEdgeStyle;rounded=0;orthogonalLoop=1;jettySize=auto;html=1;exitX=1;exitY=0.5;exitDx=0;exitDy=0;entryX=0.5;entryY=0;entryDx=0;entryDy=0;" edge="1" parent="WIyWlLk6GJQsqaUBKTNV-1" source="_BGYyYJeac0ctl_T_yDw-0" target="_BGYyYJeac0ctl_T_yDw-2">
          <mxGeometry relative="1" as="geometry" />
        </mxCell>
        <mxCell id="_BGYyYJeac0ctl_T_yDw-38" style="edgeStyle=orthogonalEdgeStyle;rounded=0;orthogonalLoop=1;jettySize=auto;html=1;exitX=0.5;exitY=1;exitDx=0;exitDy=0;entryX=1;entryY=0.75;entryDx=0;entryDy=0;" edge="1" parent="WIyWlLk6GJQsqaUBKTNV-1" source="_BGYyYJeac0ctl_T_yDw-0" target="_BGYyYJeac0ctl_T_yDw-1">
          <mxGeometry relative="1" as="geometry" />
        </mxCell>
        <mxCell id="_BGYyYJeac0ctl_T_yDw-0" value="User" style="swimlane;whiteSpace=wrap;html=1;" vertex="1" parent="WIyWlLk6GJQsqaUBKTNV-1">
          <mxGeometry x="320" y="60" width="200" height="200" as="geometry" />
        </mxCell>
        <mxCell id="_BGYyYJeac0ctl_T_yDw-3" value="id" style="text;html=1;align=center;verticalAlign=middle;resizable=0;points=[];autosize=1;strokeColor=none;fillColor=none;" vertex="1" parent="_BGYyYJeac0ctl_T_yDw-0">
          <mxGeometry y="20" width="30" height="30" as="geometry" />
        </mxCell>
        <mxCell id="_BGYyYJeac0ctl_T_yDw-5" value="Login" style="text;html=1;align=center;verticalAlign=middle;resizable=0;points=[];autosize=1;strokeColor=none;fillColor=none;" vertex="1" parent="_BGYyYJeac0ctl_T_yDw-0">
          <mxGeometry y="50" width="50" height="30" as="geometry" />
        </mxCell>
        <mxCell id="_BGYyYJeac0ctl_T_yDw-6" value="Hasło" style="text;html=1;align=center;verticalAlign=middle;resizable=0;points=[];autosize=1;strokeColor=none;fillColor=none;" vertex="1" parent="_BGYyYJeac0ctl_T_yDw-0">
          <mxGeometry y="80" width="50" height="30" as="geometry" />
        </mxCell>
        <mxCell id="_BGYyYJeac0ctl_T_yDw-23" value="Ocena (0-10)" style="text;html=1;align=center;verticalAlign=middle;resizable=0;points=[];autosize=1;strokeColor=none;fillColor=none;" vertex="1" parent="_BGYyYJeac0ctl_T_yDw-0">
          <mxGeometry y="110" width="90" height="30" as="geometry" />
        </mxCell>
        <mxCell id="_BGYyYJeac0ctl_T_yDw-1" value="ogłoszenie" style="swimlane;whiteSpace=wrap;html=1;" vertex="1" parent="WIyWlLk6GJQsqaUBKTNV-1">
          <mxGeometry x="30" y="40" width="200" height="380" as="geometry" />
        </mxCell>
        <mxCell id="_BGYyYJeac0ctl_T_yDw-4" value="ID" style="text;html=1;align=center;verticalAlign=middle;resizable=0;points=[];autosize=1;strokeColor=none;fillColor=none;" vertex="1" parent="_BGYyYJeac0ctl_T_yDw-1">
          <mxGeometry x="-5" y="30" width="40" height="30" as="geometry" />
        </mxCell>
        <mxCell id="_BGYyYJeac0ctl_T_yDw-19" value="Producent" style="text;html=1;align=center;verticalAlign=middle;resizable=0;points=[];autosize=1;strokeColor=none;fillColor=none;" vertex="1" parent="_BGYyYJeac0ctl_T_yDw-1">
          <mxGeometry y="120" width="80" height="30" as="geometry" />
        </mxCell>
        <mxCell id="_BGYyYJeac0ctl_T_yDw-20" value="Stan" style="text;html=1;align=center;verticalAlign=middle;resizable=0;points=[];autosize=1;strokeColor=none;fillColor=none;" vertex="1" parent="_BGYyYJeac0ctl_T_yDw-1">
          <mxGeometry y="150" width="50" height="30" as="geometry" />
        </mxCell>
        <mxCell id="_BGYyYJeac0ctl_T_yDw-21" value="Nazwa części" style="text;html=1;align=center;verticalAlign=middle;resizable=0;points=[];autosize=1;strokeColor=none;fillColor=none;" vertex="1" parent="_BGYyYJeac0ctl_T_yDw-1">
          <mxGeometry y="90" width="100" height="30" as="geometry" />
        </mxCell>
        <mxCell id="_BGYyYJeac0ctl_T_yDw-24" value="Cena" style="text;html=1;align=center;verticalAlign=middle;resizable=0;points=[];autosize=1;strokeColor=none;fillColor=none;" vertex="1" parent="_BGYyYJeac0ctl_T_yDw-1">
          <mxGeometry y="180" width="50" height="30" as="geometry" />
        </mxCell>
        <mxCell id="_BGYyYJeac0ctl_T_yDw-25" value="Opis" style="text;html=1;align=center;verticalAlign=middle;resizable=0;points=[];autosize=1;strokeColor=none;fillColor=none;" vertex="1" parent="_BGYyYJeac0ctl_T_yDw-1">
          <mxGeometry y="210" width="50" height="30" as="geometry" />
        </mxCell>
        <mxCell id="_BGYyYJeac0ctl_T_yDw-26" value="zdjęcie" style="text;html=1;align=center;verticalAlign=middle;resizable=0;points=[];autosize=1;strokeColor=none;fillColor=none;" vertex="1" parent="_BGYyYJeac0ctl_T_yDw-1">
          <mxGeometry y="240" width="60" height="30" as="geometry" />
        </mxCell>
        <mxCell id="_BGYyYJeac0ctl_T_yDw-29" value="Nazwa" style="text;html=1;align=center;verticalAlign=middle;resizable=0;points=[];autosize=1;strokeColor=none;fillColor=none;" vertex="1" parent="_BGYyYJeac0ctl_T_yDw-1">
          <mxGeometry y="60" width="60" height="30" as="geometry" />
        </mxCell>
        <mxCell id="_BGYyYJeac0ctl_T_yDw-2" value="Dane_user" style="swimlane;whiteSpace=wrap;html=1;" vertex="1" parent="WIyWlLk6GJQsqaUBKTNV-1">
          <mxGeometry x="600" y="130" width="200" height="350" as="geometry" />
        </mxCell>
        <mxCell id="_BGYyYJeac0ctl_T_yDw-10" value="ID" style="text;html=1;strokeColor=none;fillColor=none;align=center;verticalAlign=middle;whiteSpace=wrap;rounded=0;" vertex="1" parent="_BGYyYJeac0ctl_T_yDw-2">
          <mxGeometry y="20" width="40" height="30" as="geometry" />
        </mxCell>
        <mxCell id="_BGYyYJeac0ctl_T_yDw-11" value="Imie" style="text;html=1;align=center;verticalAlign=middle;resizable=0;points=[];autosize=1;strokeColor=none;fillColor=none;" vertex="1" parent="_BGYyYJeac0ctl_T_yDw-2">
          <mxGeometry y="50" width="50" height="30" as="geometry" />
        </mxCell>
        <mxCell id="_BGYyYJeac0ctl_T_yDw-12" value="Nazwisko" style="text;html=1;align=center;verticalAlign=middle;resizable=0;points=[];autosize=1;strokeColor=none;fillColor=none;" vertex="1" parent="_BGYyYJeac0ctl_T_yDw-2">
          <mxGeometry y="80" width="70" height="30" as="geometry" />
        </mxCell>
        <mxCell id="_BGYyYJeac0ctl_T_yDw-14" value="Miasto" style="text;html=1;align=center;verticalAlign=middle;resizable=0;points=[];autosize=1;strokeColor=none;fillColor=none;" vertex="1" parent="_BGYyYJeac0ctl_T_yDw-2">
          <mxGeometry y="140" width="60" height="30" as="geometry" />
        </mxCell>
        <mxCell id="_BGYyYJeac0ctl_T_yDw-15" value="Nr tel" style="text;html=1;align=center;verticalAlign=middle;resizable=0;points=[];autosize=1;strokeColor=none;fillColor=none;" vertex="1" parent="_BGYyYJeac0ctl_T_yDw-2">
          <mxGeometry y="110" width="50" height="30" as="geometry" />
        </mxCell>
        <mxCell id="_BGYyYJeac0ctl_T_yDw-16" value="Kod pocztowy" style="text;html=1;align=center;verticalAlign=middle;resizable=0;points=[];autosize=1;strokeColor=none;fillColor=none;" vertex="1" parent="_BGYyYJeac0ctl_T_yDw-2">
          <mxGeometry y="170" width="100" height="30" as="geometry" />
        </mxCell>
        <mxCell id="_BGYyYJeac0ctl_T_yDw-17" value="Ulica" style="text;html=1;align=center;verticalAlign=middle;resizable=0;points=[];autosize=1;strokeColor=none;fillColor=none;" vertex="1" parent="_BGYyYJeac0ctl_T_yDw-2">
          <mxGeometry y="200" width="50" height="30" as="geometry" />
        </mxCell>
        <mxCell id="_BGYyYJeac0ctl_T_yDw-18" value="Nr mieszkania" style="text;html=1;align=center;verticalAlign=middle;resizable=0;points=[];autosize=1;strokeColor=none;fillColor=none;" vertex="1" parent="_BGYyYJeac0ctl_T_yDw-2">
          <mxGeometry y="230" width="100" height="30" as="geometry" />
        </mxCell>
        <mxCell id="_BGYyYJeac0ctl_T_yDw-39" value="Filtry" style="swimlane;whiteSpace=wrap;html=1;" vertex="1" parent="WIyWlLk6GJQsqaUBKTNV-1">
          <mxGeometry x="290" y="610" width="200" height="200" as="geometry" />
        </mxCell>
        <mxCell id="_BGYyYJeac0ctl_T_yDw-40" value="Marka samochodu" style="text;html=1;align=center;verticalAlign=middle;resizable=0;points=[];autosize=1;strokeColor=none;fillColor=none;" vertex="1" parent="_BGYyYJeac0ctl_T_yDw-39">
          <mxGeometry y="30" width="120" height="30" as="geometry" />
        </mxCell>
        <mxCell id="_BGYyYJeac0ctl_T_yDw-41" value="Rok produkcji" style="text;html=1;align=center;verticalAlign=middle;resizable=0;points=[];autosize=1;strokeColor=none;fillColor=none;" vertex="1" parent="_BGYyYJeac0ctl_T_yDw-39">
          <mxGeometry x="1" y="60" width="100" height="30" as="geometry" />
        </mxCell>
        <mxCell id="_BGYyYJeac0ctl_T_yDw-42" value="stan" style="text;html=1;align=center;verticalAlign=middle;resizable=0;points=[];autosize=1;strokeColor=none;fillColor=none;" vertex="1" parent="_BGYyYJeac0ctl_T_yDw-39">
          <mxGeometry x="1" y="90" width="50" height="30" as="geometry" />
        </mxCell>
        <mxCell id="_BGYyYJeac0ctl_T_yDw-51" value="poj. silnika" style="text;html=1;align=center;verticalAlign=middle;resizable=0;points=[];autosize=1;strokeColor=none;fillColor=none;" vertex="1" parent="_BGYyYJeac0ctl_T_yDw-39">
          <mxGeometry x="1" y="120" width="80" height="30" as="geometry" />
        </mxCell>
        <mxCell id="_BGYyYJeac0ctl_T_yDw-46" style="edgeStyle=orthogonalEdgeStyle;rounded=0;orthogonalLoop=1;jettySize=auto;html=1;exitX=0.5;exitY=1;exitDx=0;exitDy=0;entryX=1;entryY=0.5;entryDx=0;entryDy=0;" edge="1" parent="WIyWlLk6GJQsqaUBKTNV-1" source="_BGYyYJeac0ctl_T_yDw-43" target="_BGYyYJeac0ctl_T_yDw-39">
          <mxGeometry relative="1" as="geometry" />
        </mxCell>
        <mxCell id="_BGYyYJeac0ctl_T_yDw-43" value="Marki samochodów" style="swimlane;whiteSpace=wrap;html=1;" vertex="1" parent="WIyWlLk6GJQsqaUBKTNV-1">
          <mxGeometry x="580" y="640" width="200" height="80" as="geometry" />
        </mxCell>
        <mxCell id="_BGYyYJeac0ctl_T_yDw-44" value="ID" style="text;html=1;align=center;verticalAlign=middle;resizable=0;points=[];autosize=1;strokeColor=none;fillColor=none;" vertex="1" parent="_BGYyYJeac0ctl_T_yDw-43">
          <mxGeometry y="20" width="40" height="30" as="geometry" />
        </mxCell>
        <mxCell id="_BGYyYJeac0ctl_T_yDw-45" value="Nazwa" style="text;html=1;align=center;verticalAlign=middle;resizable=0;points=[];autosize=1;strokeColor=none;fillColor=none;" vertex="1" parent="_BGYyYJeac0ctl_T_yDw-43">
          <mxGeometry y="50" width="60" height="30" as="geometry" />
        </mxCell>
        <mxCell id="_BGYyYJeac0ctl_T_yDw-50" style="edgeStyle=orthogonalEdgeStyle;rounded=0;orthogonalLoop=1;jettySize=auto;html=1;exitX=0.5;exitY=1;exitDx=0;exitDy=0;entryX=0.5;entryY=0;entryDx=0;entryDy=0;" edge="1" parent="WIyWlLk6GJQsqaUBKTNV-1" source="_BGYyYJeac0ctl_T_yDw-47" target="_BGYyYJeac0ctl_T_yDw-43">
          <mxGeometry relative="1" as="geometry" />
        </mxCell>
        <mxCell id="_BGYyYJeac0ctl_T_yDw-47" value="Modele" style="swimlane;whiteSpace=wrap;html=1;" vertex="1" parent="WIyWlLk6GJQsqaUBKTNV-1">
          <mxGeometry x="580" y="520" width="200" height="80" as="geometry" />
        </mxCell>
        <mxCell id="_BGYyYJeac0ctl_T_yDw-48" value="ID" style="text;html=1;align=center;verticalAlign=middle;resizable=0;points=[];autosize=1;strokeColor=none;fillColor=none;" vertex="1" parent="_BGYyYJeac0ctl_T_yDw-47">
          <mxGeometry y="20" width="40" height="30" as="geometry" />
        </mxCell>
        <mxCell id="_BGYyYJeac0ctl_T_yDw-49" value="Model" style="text;html=1;align=center;verticalAlign=middle;resizable=0;points=[];autosize=1;strokeColor=none;fillColor=none;" vertex="1" parent="_BGYyYJeac0ctl_T_yDw-47">
          <mxGeometry y="50" width="60" height="30" as="geometry" />
        </mxCell>
      </root>
    </mxGraphModel>
  </diagram>
</mxfile>
